PathFileType	4	(X/Y/Z)	Kaydara	
DataRate	CameraRate	NumFrames	NumMarkers	Units	OrigDataRate	OrigDataStartFrame	OrigNumFrames	
60.00	60.00	4	74	mm	60.00	723	227	
Frame#	Time	N_lasi			N_rasi			N_rpsi			N_lpsi			N_fneck			N_bneck			N_fhead			N_rhead			N_lhead			N_rshld			N_relbtop			N_relbext			N_relblow			N_rwrext			N_rwrtop			N_rwrlow			N_lshld			N_lelbext			N_lelbtop			N_lwrext			N_lwrtop			N_lwrlow			N_rtopleg			N_ltopleg			N_rkneefr			N_rkneebk			N_rkneeis			N_lkneefr			N_lknssbk			N_lkneeis			N_rankfr			N_rankis			N_rankbk			N_lankfr			N_lankbk			N_lankis			Z_lasi			Z_rasi			Z_rpsi			Z_lpsi			Z_fneck			Z_bneck			Z_fhead			Z_rhead			Z_lhead			Z_rshld			Z_relbtop			Z_relbext			Z_relblow			Z_rwrext			Z_rwrtop			Z_rwrlow			Z_lshld			Z_lelbext			Z_lelblow			Z_lelbtop			Z_lwrext			Z_lwrtop			Z_lwrlow			Z_rtopleg			Z_ltopleg			Z_rkneefr			Z_rkneebk			Z_rkneeis			Z_lkneefr			Z_lknssbk			Z_lkneeis			Z_rankfr			Z_rankis			Z_lankfr			Z_lankbk			Z_lankis			N_lelblow			Z_rankbk			
		X1	Y1	Z1	X2	Y2	Z2	X3	Y3	Z3	X4	Y4	Z4	X5	Y5	Z5	X6	Y6	Z6	X7	Y7	Z7	X8	Y8	Z8	X9	Y9	Z9	X10	Y10	Z10	X11	Y11	Z11	X12	Y12	Z12	X13	Y13	Z13	X14	Y14	Z14	X15	Y15	Z15	X16	Y16	Z16	X17	Y17	Z17	X18	Y18	Z18	X19	Y19	Z19	X20	Y20	Z20	X21	Y21	Z21	X22	Y22	Z22	X23	Y23	Z23	X24	Y24	Z24	X25	Y25	Z25	X26	Y26	Z26	X27	Y27	Z27	X28	Y28	Z28	X29	Y29	Z29	X30	Y30	Z30	X31	Y31	Z31	X32	Y32	Z32	X33	Y33	Z33	X34	Y34	Z34	X35	Y35	Z35	X36	Y36	Z36	X37	Y37	Z37	X38	Y38	Z38	X39	Y39	Z39	X40	Y40	Z40	X41	Y41	Z41	X42	Y42	Z42	X43	Y43	Z43	X44	Y44	Z44	X45	Y45	Z45	X46	Y46	Z46	X47	Y47	Z47	X48	Y48	Z48	X49	Y49	Z49	X50	Y50	Z50	X51	Y51	Z51	X52	Y52	Z52	X53	Y53	Z53	X54	Y54	Z54	X55	Y55	Z55	X56	Y56	Z56	X57	Y57	Z57	X58	Y58	Z58	X59	Y59	Z59	X60	Y60	Z60	X61	Y61	Z61	X62	Y62	Z62	X63	Y63	Z63	X64	Y64	Z64	X65	Y65	Z65	X66	Y66	Z66	X67	Y67	Z67	X68	Y68	Z68	X69	Y69	Z69	X70	Y70	Z70	X71	Y71	Z71	X72	Y72	Z72	X73	Y73	Z73	X74	Y74	Z74	

199	12.033	-1797.65213	1010.07507	182.50257	-2024.30603	1003.17482	219.72315	-2046.62094	1067.50710	-25.67814	-1804.59061	1072.83791	-30.14748	-1931.46896	1468.71552	229.52374	-1942.47604	1555.76630	114.14826	-1881.49063	1652.96112	360.21751	-2008.79425	1675.42633	237.52890	-1858.50006	1685.93597	193.66289	-2152.66602	1441.54877	134.06320	-2218.86230	1156.93321	15.34656	-2136.10733	1145.77682	5.48815	-2192.78778	1149.41628	83.19495	-2240.05783	902.63199	70.48070	-2246.39603	912.73270	120.74923	-2202.47650	911.13274	136.00424	-1712.22641	1468.08044	145.24714	-1733.56888	1149.62173	105.47926	-1642.49985	1191.87775	144.73038	-1753.19839	1041.81694	306.24012	-1766.68396	1085.99442	331.87279	-1809.10370	1091.80710	307.20072	-2137.81357	879.44054	96.38122	-1727.95914	885.89897	52.27504	-2066.91925	492.70687	306.69884	-2096.45126	488.64513	189.92785	-1985.09415	471.53706	219.90952	-1906.70807	447.80849	2.97756	-1820.58075	486.49273	-52.56910	-1943.02353	503.11512	-87.57584	-2086.93176	204.76105	390.33024	-2029.29474	185.31189	347.72968	-2109.69177	174.02536	335.27763	-1892.77100	158.32496	-145.65337	-1916.38748	198.53073	-228.15704	-1956.82877	184.24812	-166.90210	9.76870	989.16565	-491.24187	166.51129	1010.21454	-668.94211	294.91756	1065.25497	-515.85457	160.53242	1048.71895	-377.91519	18.43237	1441.03806	-574.82784	96.27041	1524.78714	-531.87119	-100.60526	1555.09781	-652.83997	74.97777	1631.88309	-645.58479	15.44850	1630.01190	-527.30816	260.90918	1399.20441	-697.23885	362.87415	1112.27112	-692.44034	300.94700	1095.15800	-661.45256	310.61260	1134.53888	-755.82069	327.31079	871.82098	-792.58163	307.02709	882.91649	-831.72791	265.07183	890.28870	-812.11479	-36.40785	1414.47052	-379.05251	17.48046	1089.92050	-368.27850	-68.86101	1112.64870	-345.71327	-7.01237	1083.92387	-298.58112	-94.90563	883.84590	-365.75508	-124.79967	899.87511	-392.08435	-96.98744	901.57990	-428.60615	286.90327	907.78481	-661.23680	44.60602	906.29066	-402.88857	199.12378	450.10910	-747.83272	273.97015	500.77995	-733.86620	192.91636	478.13267	-651.09909	76.98573	417.98508	-574.23439	79.94520	429.40887	-488.50578	182.28924	446.10905	-547.74189	332.03899	232.17646	-634.88354	328.56491	256.24550	-557.41779	172.85477	176.98631	-581.07124	148.06316	161.23251	-507.40013	213.62957	170.60833	-519.23447	-1721.43784	1182.22046	147.69016	389.10637	262.91180	-590.66425 
200	12.050	-1799.06479	1008.09380	199.81010	-2025.08453	1000.56999	238.77218	-2050.27740	1064.26170	-6.78284	-1808.78372	1071.19957	-14.92437	-1933.13019	1465.88013	247.56178	-1947.07489	1552.84698	132.59325	-1879.74228	1650.91278	376.17142	-2012.12646	1671.48651	258.60001	-1863.73627	1683.62457	208.70192	-2156.21338	1437.38037	154.31310	-2222.34283	1152.85973	35.47936	-2139.17725	1141.57387	26.27027	-2195.60394	1145.18654	103.24902	-2242.53952	898.25233	89.78579	-2248.50632	908.13591	140.36995	-2203.94211	906.26381	154.36134	-1715.71503	1466.14853	160.64198	-1736.12869	1146.83327	118.06612	-1645.29327	1189.27818	156.21552	-1748.55804	1029.47166	314.02126	-1762.63885	1072.18651	342.08229	-1805.73639	1077.86865	318.64202	-2139.23630	877.46414	118.98498	-1730.67062	884.05899	65.13612	-2062.20383	490.42301	329.15207	-2095.96283	488.35823	214.02901	-1983.69171	470.33665	239.96252	-1907.59628	445.13279	15.06322	-1822.73254	486.07124	-41.06163	-1946.34979	502.34940	-72.91282	-2081.61575	198.24789	404.20692	-2025.51834	180.04452	359.56478	-2106.64063	169.67121	349.57119	-1892.97256	160.16275	-141.86316	-1918.12286	202.60754	-223.23046	-1957.47589	186.23518	-161.51579	1.90366	988.82103	-496.25744	154.25491	1010.27290	-677.83287	286.43412	1065.92834	-528.05428	155.31000	1049.23264	-386.94954	8.09701	1441.28143	-582.48871	86.68266	1524.84970	-541.12354	-112.21144	1555.67169	-658.23959	63.50977	1632.20108	-654.01596	6.23996	1630.20508	-534.80103	247.70706	1398.73352	-709.75677	350.67600	1112.03163	-706.16447	289.12308	1094.90028	-674.29245	297.31445	1134.41528	-768.66631	311.83523	871.60461	-806.11031	291.34693	883.03574	-844.64920	249.58475	890.75661	-824.90646	-42.56209	1414.97894	-385.25597	9.91866	1090.16556	-375.33875	-75.98760	1113.55789	-351.71577	-13.92767	1083.97095	-305.41281	-104.35798	885.28305	-373.79089	-134.36668	901.93245	-399.66133	-106.92623	903.78067	-436.49300	274.11016	908.71124	-673.44093	40.16294	905.96794	-409.13692	177.43940	452.16736	-763.41476	253.76051	500.50240	-751.05568	175.85051	477.20097	-665.67551	74.13457	417.19688	-576.58699	77.71670	429.21150	-491.00193	179.36432	446.61304	-551.07056	307.10804	225.42351	-666.87042	308.43897	245.73509	-587.28741	172.07872	176.72953	-582.48505	147.30341	161.49998	-508.21953	212.73899	171.12206	-519.81861	-1723.76373	1179.24294	161.37877	366.86172	252.51564	-623.96473 
201	12.067	-1799.50806	1006.45988	216.36044	-2025.29724	998.14880	259.01550	-2053.92639	1061.34743	13.32587	-1812.88376	1069.36523	1.15014	-1934.98611	1463.32016	265.95575	-1951.82953	1550.23483	151.42869	-1878.11966	1649.21768	392.26818	-2015.11581	1667.91351	279.78264	-1868.94196	1681.63071	224.17137	-2159.81598	1433.42880	175.05127	-2225.77286	1148.94676	56.23504	-2142.17270	1137.42775	47.40236	-2198.33954	1141.13693	123.55881	-2244.78256	894.04427	109.21520	-2250.19653	903.54683	159.63075	-2205.68497	901.76949	173.42484	-1719.16016	1464.59351	176.43248	-1738.96790	1144.31335	130.47922	-1648.11569	1187.05124	167.99406	-1742.66769	1016.69090	321.02322	-1757.35031	1057.06337	351.59355	-1801.42319	1062.64801	329.70428	-2139.91287	876.30539	142.68109	-1732.65457	882.42065	78.66195	-2057.04361	487.37450	350.78392	-2094.51294	487.72911	237.35245	-1981.89835	468.61710	259.33693	-1908.50998	442.43927	28.78606	-1825.75806	485.24654	-28.65258	-1949.82773	501.45744	-56.99365	-2076.15173	190.52332	414.13284	-2022.57996	173.94939	365.99880	-2103.75992	164.78462	358.18451	-1893.06656	162.51041	-137.62226	-1920.07660	207.28559	-216.88103	-1958.26126	188.58377	-155.13745	-5.71914	988.54561	-501.18519	142.03698	1010.16045	-686.57326	277.63905	1066.43547	-540.27603	150.14057	1049.79446	-396.16161	-2.40267	1441.09100	-590.23220	76.97644	1524.72534	-550.57491	-123.94580	1555.78293	-663.92670	51.88197	1631.99799	-662.72911	-3.03159	1630.02182	-542.68047	234.13496	1397.90283	-722.40005	338.33782	1111.48247	-720.12573	277.54690	1094.55536	-687.14195	283.67056	1133.99796	-781.55037	296.04956	871.12030	-819.32869	275.49778	882.68677	-857.87056	233.68793	890.94345	-837.21184	-48.68964	1415.20905	-391.69411	2.39985	1090.10841	-382.68253	-82.87179	1114.00246	-358.12786	-20.82829	1083.64410	-312.52550	-113.69364	886.37436	-381.60698	-143.57210	903.40240	-406.80386	-116.79527	905.31403	-444.05823	261.50545	909.66858	-686.01631	36.63516	905.48866	-415.83851	156.05860	453.93665	-777.89452	234.03757	499.70909	-767.43454	159.31576	475.77465	-679.59587	70.84860	416.42673	-579.24969	75.35601	429.12983	-493.37330	175.38572	446.83945	-554.22413	279.93237	219.64857	-698.23013	285.29049	235.30830	-618.43304	171.32065	176.54577	-583.71361	146.88277	161.59536	-508.87207	212.43423	171.13350	-521.67652	-1726.61972	1176.43013	174.42642	342.97916	241.90668	-657.56485 
202	12.083	-1798.54782	1004.03297	232.74876	-2024.66278	996.14723	280.21248	-2057.89261	1058.88481	34.45577	-1816.76880	1067.69836	18.10173	-1936.98273	1461.03348	284.71283	-1956.14532	1547.62543	170.39900	-1876.79489	1647.77130	408.52879	-2017.98645	1664.70367	301.00975	-1873.95859	1679.90784	240.22816	-2163.26019	1429.64218	196.10605	-2228.72772	1145.08644	76.83949	-2144.66293	1133.65143	68.39800	-2200.92804	1137.25212	144.03595	-2246.93436	890.06134	128.82737	-2251.88583	899.23248	179.19159	-2207.30865	897.41119	192.60614	-1722.67914	1463.55255	192.43927	-1741.19049	1141.78955	142.92224	-1650.65247	1185.40337	180.11452	-1735.96603	1002.87605	326.61449	-1750.92880	1040.95116	360.12081	-1795.91385	1046.45248	339.92386	-2140.35583	875.10521	167.66024	-1735.57877	879.74968	92.57287	-2051.67709	483.28705	370.52494	-2092.65762	486.42212	258.77949	-1979.51996	466.63914	277.15330	-1909.28238	439.61529	43.71672	-1828.62885	484.37500	-14.76194	-1953.32520	500.51617	-39.30013	-2071.72134	183.73209	423.73058	-2020.11597	168.47586	372.32075	-2100.53787	160.13659	367.49432	-1893.39661	165.57888	-132.44774	-1922.45712	212.72657	-209.65618	-1959.26926	191.45563	-147.89391	-13.21263	988.30559	-506.31897	129.79810	1009.92294	-695.21782	268.90903	1066.84837	-552.48520	145.69220	1050.11627	-404.64973	-13.11462	1440.58823	-598.09525	67.05507	1524.20441	-560.37643	-135.78638	1555.44907	-670.04128	40.14358	1631.34827	-671.92848	-12.57724	1629.51736	-551.05839	220.31723	1396.77094	-735.14427	325.78400	1110.67513	-734.33739	265.55014	1093.77579	-699.91425	269.66192	1133.20419	-794.41193	279.85069	870.44601	-832.47223	258.63684	882.34795	-870.82603	217.34451	890.74265	-849.22470	-54.98963	1415.22461	-398.47630	-5.04254	1089.77173	-390.42694	-89.99205	1114.17107	-364.91116	-27.47853	1083.19443	-320.05455	-122.64123	887.02431	-389.14478	-152.65487	904.37073	-413.98361	-126.22837	906.45515	-451.57616	248.83131	910.50980	-698.36266	32.25219	905.15556	-421.67892	135.27489	455.56034	-791.63498	215.04875	498.43643	-783.09128	142.14279	473.89999	-693.40607	67.37884	415.79288	-581.76125	73.14554	429.55265	-495.79823	174.63442	448.60897	-560.20054	251.23808	213.70148	-729.33914	261.04208	225.18408	-649.79942	170.43957	176.26659	-584.88800	146.34355	161.69603	-509.79561	211.64675	171.66479	-522.97245	-1728.52783	1173.03047	187.19198	317.38808	231.30630	-690.96062 
